<svg xmlns="http://www.w3.org/2000/svg" viewBox="0 0 263.35 145.17"><defs><style>.cls-1{fill:#fff;}</style></defs><title>アセット 1</title><g id="レイヤー_2" data-name="レイヤー 2"><g id="レイヤー_1-2" data-name="レイヤー 1"><path class="cls-1" d="M5.4,115.07a4.27,4.27,0,0,0,4,1.93,3.63,3.63,0,0,0,1.37-.21,1.53,1.53,0,0,0,1.08-1.47,1.3,1.3,0,0,0-1-1.26,9.18,9.18,0,0,0-1.48-.4l-1.54-.32a12.55,12.55,0,0,1-1.61-.45,3.26,3.26,0,0,1-2.14-3.13c0-2.42,2-4,5-4a6,6,0,0,1,5.13,2.58l-1.95,1.47a3.68,3.68,0,0,0-3.3-1.9c-1.28,0-2.4.58-2.4,1.55s1.19,1.3,2.34,1.52l1.32.29c1.72.36,4.14,1.06,4.14,3.79,0,2.93-2.71,4.1-5.42,4.1a8.44,8.44,0,0,1-2.28-.29,5.76,5.76,0,0,1-3.3-2.42Z"/><path class="cls-1" d="M32.32,106.12l-2.8,12.74H26.74L25,110l-1.84,8.86H20.33l-2.66-12.74h2.44l1.74,9.71,2-9.71h2.22l2,9.71,1.79-9.71Z"/><path class="cls-1" d="M39.08,106.12v12.74H36.73V106.12Z"/><path class="cls-1" d="M57.13,106.12v12.74H54.8L55,108.39l-2.75,10.47H50.12l-2.76-10.47.23,10.47H45.27V106.12h3.46l2.49,9.46,2.44-9.46Z"/><path class="cls-1" d="M76.56,106.12l-2.79,12.74H71L69.2,110l-1.84,8.86H64.57l-2.65-12.74h2.44l1.73,9.71,2-9.71H70.3l2,9.71,1.79-9.71Z"/><path class="cls-1" d="M83.56,108.25v3H89.7v2.06H83.56v3.41h7.17v2.15H81.21V106.12h9.06v2.13Z"/><path class="cls-1" d="M102.89,116.37H98.1l-.74,2.49H94.81l4.3-12.74h2.71l4.35,12.74h-2.55Zm-.64-2.08-1.75-5.86-1.77,5.86Z"/><path class="cls-1" d="M110.15,106.12h4.07c1.69,0,2.83,0,4,.92a3.89,3.89,0,0,1,1.41,3.14,3.48,3.48,0,0,1-2.51,3.5l2.83,5.18h-2.72l-2.53-4.73h-2.13v4.73h-2.37Zm2.37,2v4h.83c.81,0,1.12,0,1.57,0a2,2,0,0,0,2.24-2,1.84,1.84,0,0,0-1-1.72,5.93,5.93,0,0,0-2.53-.27Z"/><path class="cls-1" d="M135.51,111.37v7.49h-2.17v-7.49H132v-1.55h1.36v-1c0-1.29,0-2.69,2.91-2.69a11.79,11.79,0,0,1,1.22.07V108a3.94,3.94,0,0,0-.68-.05,1.21,1.21,0,0,0-1.14.45,1.56,1.56,0,0,0-.14.67v.74h2v1.55Z"/><path class="cls-1" d="M144.24,119.13a4.56,4.56,0,0,1-4.69-4.82,4.64,4.64,0,1,1,4.69,4.82Zm-.11-7.61c-1.35,0-2.33,1.08-2.33,2.74,0,1.86,1.14,2.89,2.44,2.89,1.57,0,2.36-1.37,2.31-2.87S145.65,111.52,144.13,111.52Z"/><path class="cls-1" d="M154,109.84v1.28a2.78,2.78,0,0,1,2.89-1.48v2.22a3.27,3.27,0,0,0-2,.54c-.92.7-.94,1.62-.94,3.12v3.34h-2.1v-9Z"/><path class="cls-1" d="M4.47,132.1H8.76a8.24,8.24,0,0,1,2.19.2,4,4,0,0,1,3,4,3.84,3.84,0,0,1-3.08,4,9.34,9.34,0,0,1-2.14.16H6.87v4.32H4.47Zm2.4,2v4.43H8.58a5.2,5.2,0,0,0,1.35-.11,2.31,2.31,0,0,0,.94-3.79,3.26,3.26,0,0,0-2.2-.53Z"/><path class="cls-1" d="M23.9,142.36H19.12l-.74,2.49H15.83l4.3-12.75h2.71l4.35,12.75H24.64Zm-.63-2.08-1.75-5.87-1.77,5.87Z"/><path class="cls-1" d="M31.35,132.1h4.06c1.7,0,2.84,0,4,.92a3.9,3.9,0,0,1,1.41,3.15,3.5,3.5,0,0,1-2.51,3.5l2.83,5.18H38.37l-2.52-4.73H33.72v4.73H31.35Zm2.37,2.06v4h.83c.81,0,1.12,0,1.57,0a2,2,0,0,0,2.23-2,1.82,1.82,0,0,0-1-1.72,5.85,5.85,0,0,0-2.52-.27Z"/><path class="cls-1" d="M48.64,134.23v3h6.14v2.06H48.64v3.41h7.17v2.15H46.29V132.1h9.06v2.13Z"/><path class="cls-1" d="M68.74,132.1h2.35v12.75H69l-5.58-8.94.15,8.94H61.25V132.1H63.4l5.63,9Z"/><path class="cls-1" d="M85.11,134.27H81.59v10.58H79.21V134.27H75.76V132.1h9.35Z"/><path class="cls-1" d="M90.07,141.06A4.25,4.25,0,0,0,94,143a3.73,3.73,0,0,0,1.38-.22,1.52,1.52,0,0,0,1.08-1.46,1.29,1.29,0,0,0-1-1.26,8.81,8.81,0,0,0-1.48-.4l-1.53-.33a10.71,10.71,0,0,1-1.61-.45,3.24,3.24,0,0,1-2.15-3.12c0-2.42,2-4,5-4a6,6,0,0,1,5.13,2.58l-2,1.46a3.72,3.72,0,0,0-3.31-1.89c-1.28,0-2.4.57-2.4,1.55s1.19,1.3,2.35,1.51l1.31.29c1.72.36,4.14,1.07,4.14,3.8,0,2.92-2.71,4.09-5.42,4.09a8.42,8.42,0,0,1-2.27-.29,5.72,5.72,0,0,1-3.31-2.41Z"/><path class="cls-1" d="M112,138.48a3,3,0,0,1,.37-1.36c.86-1.57,3-1.57,3.59-1.57a5.49,5.49,0,0,1,2.71.58,2.41,2.41,0,0,1,1.08,2.47v4.79a1.89,1.89,0,0,0,.4,1.46h-2.56c0-.22-.06-.58-.06-.71a4.24,4.24,0,0,1-2.67.93c-2,0-3.27-1.27-3.27-2.82a2.75,2.75,0,0,1,.29-1.23,3.71,3.71,0,0,1,2.91-1.75,21.25,21.25,0,0,0,2.8-.67c0-.45,0-1.37-1.54-1.37a1.94,1.94,0,0,0-1.61.58,1.08,1.08,0,0,0-.21.79Zm5.59,1.87a6.14,6.14,0,0,1-1.9.54c-.78.11-1.81.29-1.81,1.25,0,.7.6,1.06,1.47,1.06a2.24,2.24,0,0,0,2.11-1,1.77,1.77,0,0,0,.13-.81Z"/><path class="cls-1" d="M123.43,135.82h2.19v1.07a2.5,2.5,0,0,1,.7-.71,3.8,3.8,0,0,1,2.08-.63,3,3,0,0,1,2.36,1.08,4.76,4.76,0,0,1,.56,2.91v5.31h-2.15v-4.61a6.64,6.64,0,0,0-.07-1.37,1.48,1.48,0,0,0-1.48-1.21,1.91,1.91,0,0,0-1.66,1,5.24,5.24,0,0,0-.34,2.26v3.92h-2.19Z"/><path class="cls-1" d="M142.66,132.1v12.75h-2.15V144a3.14,3.14,0,0,1-2.51,1.14c-2.15,0-4-1.61-4-4.59,0-2.69,1.52-5,4.1-5a3.1,3.1,0,0,1,2.42,1V132.1ZM140,138.39a1.84,1.84,0,0,0-1.59-.84c-1.46,0-2.16,1.32-2.16,2.75,0,.16,0,2.87,2.13,2.87,1.12,0,2.13-.83,2.11-2.78A3.92,3.92,0,0,0,140,138.39Z"/><path class="cls-1" d="M165.84,141.29a6.51,6.51,0,0,1-1.1,1.91,5.62,5.62,0,0,1-4.41,2c-3.37,0-6-2.47-6-6.73s2.8-6.66,6.05-6.66a5.11,5.11,0,0,1,5.2,3.93l-2.39.63a3.09,3.09,0,0,0-.47-1.26,2.67,2.67,0,0,0-2.29-1.12c-2.08,0-3.52,1.72-3.52,4.44,0,2.91,1.54,4.52,3.54,4.52a2.91,2.91,0,0,0,2.43-1.25,4.11,4.11,0,0,0,.67-1.32Z"/><path class="cls-1" d="M179.55,132.1v12.75h-2.4v-5.8h-5.47v5.8H169.3V132.1h2.38v4.82h5.47V132.1Z"/><path class="cls-1" d="M186.77,132.1v12.75h-2.35V132.1Z"/><path class="cls-1" d="M194.12,142.68h5v2.17h-7.46V132.08h2.41Z"/><path class="cls-1" d="M203.26,132.1h4.57a6.13,6.13,0,0,1,3.77,1,6.59,6.59,0,0,1,2.46,5.49c0,2.19-.74,4.41-2.62,5.49a7.86,7.86,0,0,1-4.1.78h-4.08Zm2.38,2.17v8.43h1a8.45,8.45,0,0,0,3-.29c.92-.36,1.9-1.16,1.9-3.81,0-1.19-.18-3.14-1.95-4a5.71,5.71,0,0,0-2.67-.34Z"/><path class="cls-1" d="M218.11,132.1h4.06c1.7,0,2.84,0,4,.92a3.89,3.89,0,0,1,1.4,3.15,3.5,3.5,0,0,1-2.5,3.5l2.83,5.18h-2.73l-2.52-4.73h-2.13v4.73h-2.37Zm2.37,2.06v4h.83c.81,0,1.12,0,1.57,0a2,2,0,0,0,2.24-2,1.84,1.84,0,0,0-1-1.72,5.93,5.93,0,0,0-2.53-.27Z"/><path class="cls-1" d="M234.5,134.23v3h6.13v2.06H234.5v3.41h7.17v2.15h-9.52V132.1h9.06v2.13Z"/><path class="cls-1" d="M253.34,132.1h2.35v12.75h-2.08L248,135.91l.14,8.94h-2.32V132.1H248l5.63,9Z"/><path class="cls-1" d="M263.35,142.38v2.47H261v-2.47Z"/><path class="cls-1" d="M256.88,6.23a14.58,14.58,0,0,0-11.35-5.17c-9.58,0-18.85,8.51-20.68,19a17.9,17.9,0,0,0,3.46,14.68,14.52,14.52,0,0,0,11.33,5.18c9.59,0,18.87-8.51,20.71-19A18,18,0,0,0,256.88,6.23ZM255.2,20c-1.43,8.08-8.38,14.65-15.56,14.65a9.24,9.24,0,0,1-7.33-3.32A12.65,12.65,0,0,1,230,20.91c1.4-8.06,8.39-14.63,15.55-14.63a9.27,9.27,0,0,1,7.34,3.32A12.65,12.65,0,0,1,255.2,20Z"/><path class="cls-1" d="M56.26,2C51,2,46.13,6.46,45.15,12.11L42.74,25.87c-.83,4.73-5,8.72-9.17,8.72a5.16,5.16,0,0,1-4.07-1.83,7.35,7.35,0,0,1-1.29-6h0l3.4-19.47a2.6,2.6,0,1,0-5.13-.9l-3.4,19.48c-.84,4.73-5,8.72-9.17,8.72a5.1,5.1,0,0,1-4.06-1.83,7.26,7.26,0,0,1-1.31-6L10.94,13A9.73,9.73,0,0,0,9,5,8.21,8.21,0,0,0,2.6,2a2.61,2.61,0,0,0,0,5.22A3,3,0,0,1,5,8.32a4.68,4.68,0,0,1,.8,3.8L3.41,25.87A12.47,12.47,0,0,0,5.85,36.12a10.33,10.33,0,0,0,8.06,3.69,14.18,14.18,0,0,0,10.58-5.27,9.75,9.75,0,0,0,9.08,5.27c6.75,0,13-5.73,14.32-13L50.28,13c.55-3.13,3.29-5.77,6-5.77a2.61,2.61,0,0,0,0-5.22Z"/><path class="cls-1" d="M106.5,32.14a6.78,6.78,0,0,1-2.61,1c-3.3-.32-3.58-2.58-3.59-2.61a16.41,16.41,0,0,1,0-2.62L102.54,15c.94-5.32-.79-8.76-2.42-10.7A13,13,0,0,0,89.92,0a2.61,2.61,0,1,0,0,5.21,7.9,7.9,0,0,1,6.21,2.45,7.77,7.77,0,0,1,1.28,6.44l-.12.68A13.67,13.67,0,0,0,88.18,11h-.55c-8,0-15.45,5.88-17,13.38A12.39,12.39,0,0,0,72.88,34.8a13.44,13.44,0,0,0,10.19,4.91h.58a17.85,17.85,0,0,0,12.63-5.47,9.1,9.1,0,0,0,7.45,4.15h.35a11.59,11.59,0,0,0,5.37-2,2.61,2.61,0,1,0-3-4.3ZM94,28.92a12.84,12.84,0,0,1-10.33,5.59l-.39,0A8.1,8.1,0,0,1,77,31.58a7.32,7.32,0,0,1-1.27-6.09c1.08-5.1,6.43-9.24,11.92-9.24H88a7.9,7.9,0,0,1,7,4c.06.12,1.44,3.11-.53,7.92C94.41,28.29,94.26,28.52,94,28.92Z"/><path class="cls-1" d="M194.78,1.05c-9.66,1-18.32,10.18-19.29,20.58a17.19,17.19,0,0,0,4.57,13.92,14.55,14.55,0,0,0,10.42,4.23c.55,0,1.1,0,1.66-.09a20.64,20.64,0,0,0,13-6.78,2.61,2.61,0,0,0-3.83-3.55,15.51,15.51,0,0,1-9.7,5.15,9.61,9.61,0,0,1-7.89-2.65,12,12,0,0,1-3-9.74c.74-8,7.3-15.18,14.6-15.88a9.44,9.44,0,0,1,10,5.78A2.61,2.61,0,0,0,210.09,10,14.69,14.69,0,0,0,194.78,1.05Z"/><path class="cls-1" d="M145,1.05c-9.66,1-18.32,10.18-19.31,20.59a17.15,17.15,0,0,0,4.6,13.92,14.54,14.54,0,0,0,10.41,4.22c.53,0,1.09,0,1.64-.09a20.64,20.64,0,0,0,13-6.78,2.6,2.6,0,1,0-3.81-3.55,15.59,15.59,0,0,1-9.7,5.15,9.61,9.61,0,0,1-7.89-2.65,12.07,12.07,0,0,1-3.07-9.74c.77-8,7.31-15.18,14.62-15.88a9.47,9.47,0,0,1,10,5.78A2.6,2.6,0,1,0,160.25,10,14.64,14.64,0,0,0,145,1.05Z"/><path class="cls-1" d="M7.76,63.57a20.37,20.37,0,0,1-2.5.15c-.21,0-.29,0-.32-.12s-.07-.38-.13-.83c.25,0,.36,0,.58,0a20.13,20.13,0,0,0,2.37-.16V62.5a14.5,14.5,0,0,0-.17-2.91,9.48,9.48,0,0,1,1.07.13c.23,0,.32.09.32.2s0,.09-.09.33a7,7,0,0,0-.21,2.24,24.75,24.75,0,0,0,2.48-.58.16.16,0,0,1,.09,0c.08,0,.13,0,.14.11a2.86,2.86,0,0,1,.11.69.17.17,0,0,1-.15.19,20.68,20.68,0,0,1-2.67.56v2.81a11.16,11.16,0,0,1,4.28-1,2.7,2.7,0,0,1,2.92,2.89,2.94,2.94,0,0,1-3.28,3.12A4.67,4.67,0,0,1,11.16,71c-.13-.05-.18-.12-.2-.3a3.22,3.22,0,0,0-.26-.82,4.35,4.35,0,0,0,1.84.39,2.07,2.07,0,0,0,2.25-2.21,1.79,1.79,0,0,0-2-1.95,10.37,10.37,0,0,0-4.15,1.09v1.12c0,.54,0,.91,0,1.1v.59c0,.91-.44,1.45-1.19,1.45a3.34,3.34,0,0,1-2.14-1,1.52,1.52,0,0,1-.51-1.17c0-.88.81-1.63,2.88-2.69Zm0,4.13c-1.42.78-1.93,1.21-1.93,1.68s.75,1.07,1.49,1.07a.39.39,0,0,0,.38-.27c.06-.16.06-.16.06-1V67.7ZM16,62.52c.66.41,1.19.9,1.19,1.06a1.66,1.66,0,0,1-.67.76c-.06,0-.09,0-.31-.25a6.3,6.3,0,0,0-2.52-1.54c-.24-.08-.3-.11-.3-.16s.07-.2.31-.53c.11-.16.16-.19.27-.19A6.83,6.83,0,0,1,16,62.52Z"/><path class="cls-1" d="M30,65.84c-.08.08-.12.09-.18.09-.21,0-.46-.34-.9-1.15a17.54,17.54,0,0,0,3.16-1.23,10.77,10.77,0,0,0-1.56-3,4.29,4.29,0,0,1,1.25-.37c.14,0,.19.07.21.29a3.7,3.7,0,0,0,.5,1.42c.24.55.39.85.55,1.22,3-1.34,4.46-1.76,5.9-1.76a2.78,2.78,0,0,1,3,2.87c0,1.76-1.35,2.94-3.37,2.94a6.29,6.29,0,0,1-1.6-.19c-.08,0-.11-.09-.14-.27a2.32,2.32,0,0,0-.35-.9,6,6,0,0,0,2,.35c1.42,0,2.35-.8,2.35-2a1.86,1.86,0,0,0-2-1.86,12.2,12.2,0,0,0-4.22,1.16l-1.15.5c.68,1.6,1.48,3.71,2.42,6.5a8.9,8.9,0,0,1,.36,1.12c0,.09-.08.15-.33.24a2,2,0,0,1-.64.16c-.11,0-.11,0-.23-.42a49.47,49.47,0,0,0-2.53-7.16A12.54,12.54,0,0,0,30,65.84Zm6.24-6c.47.42.73.78.73.95a1.59,1.59,0,0,1-.68.68c-.08,0-.08,0-.38-.41a5.94,5.94,0,0,0-1.16-1.13c-.08,0-.11-.09-.11-.14a1.46,1.46,0,0,1,.67-.63A3.86,3.86,0,0,1,36.22,59.81Z"/><path class="cls-1" d="M57.08,68.91c.82.8,1.94,1.1,4,1.1a17.85,17.85,0,0,0,4-.47.57.57,0,0,1,.19,0c.06,0,.1,0,.12.11a5.36,5.36,0,0,1,.06.83c0,.18,0,.27-.16.29a22.86,22.86,0,0,1-4.21.41,7.12,7.12,0,0,1-4.15-.87,3.54,3.54,0,0,1-1.1-1.18,2.64,2.64,0,0,1-.31-.77c0-.12.31-.37.83-.63A2.62,2.62,0,0,0,57.08,68.91Zm6.58-8.18c.09,0,.12,0,.14.13a3,3,0,0,1,.06.66c0,.28,0,.34-.14.37A17.52,17.52,0,0,1,61.4,62a19.88,19.88,0,0,1-4.09-.43c-.4-.09-.42-.1-.42-.37a4.63,4.63,0,0,1,.08-.85,15.51,15.51,0,0,0,4.14.52,16.66,16.66,0,0,0,2.47-.16Z"/><path class="cls-1" d="M84.66,67.24c-.9,2-1.92,3-3.08,3-1.41,0-2.4-1.48-2.4-3.6a6,6,0,0,1,2.59-5,6.8,6.8,0,0,1,4-1.16c3.42,0,5.67,2.06,5.67,5.2a5.59,5.59,0,0,1-2.88,4.93,6.68,6.68,0,0,1-2,.9c-.1,0-.15,0-.27-.17a2.15,2.15,0,0,0-.69-.6,8.27,8.27,0,0,0,2.55-1.09,4.8,4.8,0,0,0,2.17-4,4,4,0,0,0-2.4-3.82,4.36,4.36,0,0,0-1.77-.41A20,20,0,0,1,84.66,67.24Zm-1.72-5.17a5.06,5.06,0,0,0-2.74,4.68c0,1.41.58,2.4,1.41,2.4s1.38-.8,2.06-2.35a18.64,18.64,0,0,0,1.4-5.31A5.73,5.73,0,0,0,82.94,62.07Z"/><path class="cls-1" d="M110,63a8.35,8.35,0,0,0-.33.94,12.87,12.87,0,0,1-4.46,6.63,3.94,3.94,0,0,0-.86-.76,11.19,11.19,0,0,0,4.49-6.37h-2.49a8.61,8.61,0,0,0-1.42.09V62.46a8.93,8.93,0,0,0,1.46.07H108a8.68,8.68,0,0,0,1.42-.06Zm6.69-.63a23.52,23.52,0,0,1-3.21,3,12.07,12.07,0,0,0,4.7,4.24,4.58,4.58,0,0,0-.8.95,13.17,13.17,0,0,1-5.72-7.17c.07,1.21.11,2.4.11,2.94v4.46c0,.92-.31,1.2-1.36,1.2a16.74,16.74,0,0,1-1.92-.11,3.52,3.52,0,0,0-.24-1,11.1,11.1,0,0,0,2,.2c.41,0,.5-.08.5-.42V60.42a9.21,9.21,0,0,0-.11-1.52h1.19a12.93,12.93,0,0,0-.11,1.5v1.05A10.21,10.21,0,0,0,113,64.67a13.42,13.42,0,0,0,3.18-3.47l.94.74-.23.22Z"/><path class="cls-1" d="M133.14,61a9,9,0,0,0-1.47.1v-1a8.3,8.3,0,0,0,1.47.1h2.14a8.86,8.86,0,0,0-1.15-1.46l.85-.31a12.12,12.12,0,0,1,1.28,1.77h2.54a9.93,9.93,0,0,0,1.38-1.76l.89.35a9.87,9.87,0,0,1-1.27,1.41h2.32a8.45,8.45,0,0,0,1.47-.1v1a8.45,8.45,0,0,0-1.47-.1H138v1h3.65a6.4,6.4,0,0,0,1.32-.08v.9a8.87,8.87,0,0,0-1.32-.07H138V63.9h4.76a9.9,9.9,0,0,0,1.49-.08v1a8.78,8.78,0,0,0-1.49-.1h-7.45c-.15.5-.19.69-.29,1h6.51a12.91,12.91,0,0,0,1.36-.07,9.61,9.61,0,0,0-.07,1.19v4.3a7.83,7.83,0,0,0,.1,1.35h-1v-.72h-6.69v.72h-1a7.78,7.78,0,0,0,.1-1.34V68.83a12.46,12.46,0,0,1,.11-1.67,12.05,12.05,0,0,1-2.88,4.14,3.41,3.41,0,0,0-.74-.81,10.21,10.21,0,0,0,3.6-5.81h-1.81a7.82,7.82,0,0,0-1.47.1v-1a9.61,9.61,0,0,0,1.47.08h4.54V62.83h-3.37a8.63,8.63,0,0,0-1.31.07V62a6.29,6.29,0,0,0,1.31.08h3.37V61Zm2,5.37v1h6.69v-1Zm0,1.73v1h6.69v-1Zm0,1.74v1h6.69v-1Z"/></g></g></svg>