<svg xmlns="http://www.w3.org/2000/svg" viewBox="0 0 264 145.53"><defs><style>.cls-1{fill:#595757;}</style></defs><title>kv_title</title><g id="レイヤー_2" data-name="レイヤー 2"><g id="レイヤー_1-2" data-name="レイヤー 1"><path class="cls-1" d="M5.42,115.36a4.26,4.26,0,0,0,4,1.93,3.93,3.93,0,0,0,1.38-.21,1.54,1.54,0,0,0,1.08-1.47,1.3,1.3,0,0,0-1-1.27,8.81,8.81,0,0,0-1.48-.4l-1.54-.32a12.55,12.55,0,0,1-1.61-.45A3.27,3.27,0,0,1,4.1,110c0-2.42,2-4,5.05-4a6,6,0,0,1,5.14,2.59l-2,1.47A3.7,3.7,0,0,0,9,108.2c-1.29,0-2.41.58-2.41,1.56s1.2,1.31,2.36,1.52l1.32.29c1.72.37,4.14,1.07,4.14,3.8,0,2.94-2.71,4.11-5.43,4.11a8.44,8.44,0,0,1-2.28-.29,5.75,5.75,0,0,1-3.31-2.42Z"/><path class="cls-1" d="M32.4,106.38l-2.81,12.78H26.8L25,110.27l-1.85,8.89H20.38l-2.66-12.78h2.44l1.74,9.74,2-9.74h2.23l2,9.74,1.8-9.74Z"/><path class="cls-1" d="M39.17,106.38v12.78H36.82V106.38Z"/><path class="cls-1" d="M57.27,106.38v12.78H54.93l.22-10.5-2.75,10.5H50.24l-2.76-10.5.23,10.5H45.38V106.38h3.47l2.5,9.48,2.44-9.48Z"/><path class="cls-1" d="M76.75,106.38,74,119.16H71.16l-1.79-8.89-1.85,8.89H64.73l-2.66-12.78h2.45l1.73,9.74,2-9.74h2.22l2,9.74,1.79-9.74Z"/><path class="cls-1" d="M83.76,108.51v3h6.16v2.06H83.76V117H91v2.16H81.41V106.38H90.5v2.13Z"/><path class="cls-1" d="M103.14,116.66h-4.8l-.74,2.5H95.05l4.31-12.78h2.71l4.36,12.78h-2.55Zm-.64-2.08-1.75-5.89L99,114.58Z"/><path class="cls-1" d="M110.42,106.38h4.08c1.7,0,2.84,0,4,.92a3.89,3.89,0,0,1,1.42,3.15,3.5,3.5,0,0,1-2.52,3.51l2.84,5.2h-2.73l-2.54-4.75H112.8v4.75h-2.38Zm2.38,2.06v4h.83c.82,0,1.12,0,1.57,0a2,2,0,0,0,2.25-2,1.83,1.83,0,0,0-1-1.72,5.91,5.91,0,0,0-2.53-.27Z"/><path class="cls-1" d="M135.84,111.65v7.51h-2.17v-7.51h-1.36v-1.56h1.36v-1c0-1.29,0-2.7,2.91-2.7a12,12,0,0,1,1.23.07v1.85a3.08,3.08,0,0,0-.69-.06,1.19,1.19,0,0,0-1.13.46,1.38,1.38,0,0,0-.15.67v.74h2v1.56Z"/><path class="cls-1" d="M144.6,119.43a4.58,4.58,0,0,1-4.71-4.84,4.65,4.65,0,1,1,4.71,4.84Zm-.12-7.64c-1.35,0-2.33,1.09-2.33,2.75,0,1.86,1.14,2.9,2.45,2.9,1.57,0,2.37-1.38,2.31-2.88A2.55,2.55,0,0,0,144.48,111.79Z"/><path class="cls-1" d="M154.42,110.11v1.28a2.79,2.79,0,0,1,2.89-1.48v2.22a3.31,3.31,0,0,0-1.95.55c-.92.7-.94,1.63-.94,3.13v3.35h-2.1v-9Z"/><path class="cls-1" d="M4.48,132.43h4.3a8.24,8.24,0,0,1,2.19.2,4,4,0,0,1,3,4.05,3.86,3.86,0,0,1-3.08,4,9.43,9.43,0,0,1-2.15.16H6.88v4.33H4.48Zm2.4,2v4.44H8.6A5.32,5.32,0,0,0,10,138.8a2.07,2.07,0,0,0,1.58-2.17A2.11,2.11,0,0,0,10.9,135a3.3,3.3,0,0,0-2.21-.53Z"/><path class="cls-1" d="M24,142.71H19.17l-.75,2.5H15.87l4.31-12.78h2.71l4.37,12.78H24.7Zm-.63-2.08-1.76-5.89-1.77,5.89Z"/><path class="cls-1" d="M31.43,132.43H35.5c1.7,0,2.84,0,4,.92a3.89,3.89,0,0,1,1.42,3.15A3.51,3.51,0,0,1,38.36,140l2.84,5.2H38.47l-2.54-4.75H33.8v4.75H31.43Zm2.37,2.06v4h.83c.82,0,1.12,0,1.58,0a2,2,0,0,0,2.24-2,1.84,1.84,0,0,0-1-1.72,6,6,0,0,0-2.54-.27Z"/><path class="cls-1" d="M48.76,134.56v3h6.15v2.06H48.76v3.42h7.18v2.16H46.41V132.43h9.08v2.13Z"/><path class="cls-1" d="M68.91,132.43h2.35v12.78H69.18l-5.59-9,.14,9H61.4V132.43h2.16l5.64,9Z"/><path class="cls-1" d="M85.32,134.6H81.79v10.61H79.4V134.6H76v-2.17h9.37Z"/><path class="cls-1" d="M90.29,141.41a4.28,4.28,0,0,0,4,1.93,3.46,3.46,0,0,0,1.37-.22,1.53,1.53,0,0,0,1.09-1.46,1.32,1.32,0,0,0-1-1.27,10.55,10.55,0,0,0-1.49-.4l-1.53-.32a10.66,10.66,0,0,1-1.62-.46A3.26,3.26,0,0,1,89,136.08c0-2.42,2-4,5-4a6,6,0,0,1,5.14,2.59l-2,1.47a3.71,3.71,0,0,0-3.32-1.9c-1.28,0-2.4.58-2.4,1.55s1.19,1.3,2.35,1.52l1.32.29c1.72.36,4.14,1.07,4.14,3.8,0,2.93-2.71,4.11-5.42,4.11a8.51,8.51,0,0,1-2.29-.29,5.75,5.75,0,0,1-3.31-2.42Z"/><path class="cls-1" d="M112.32,138.82a3,3,0,0,1,.36-1.36c.87-1.58,3-1.58,3.61-1.58a5.57,5.57,0,0,1,2.71.58,2.41,2.41,0,0,1,1.09,2.48v4.8a1.91,1.91,0,0,0,.4,1.47h-2.57c0-.22-.06-.58-.06-.71a4.25,4.25,0,0,1-2.68.92c-2,0-3.27-1.26-3.27-2.82a2.75,2.75,0,0,1,.29-1.23,3.75,3.75,0,0,1,2.91-1.76,19.94,19.94,0,0,0,2.81-.67c0-.45,0-1.37-1.54-1.37a1.91,1.91,0,0,0-1.61.58,1,1,0,0,0-.22.79Zm5.6,1.88a6.23,6.23,0,0,1-1.91.54c-.77.11-1.81.29-1.81,1.25,0,.71.6,1.07,1.47,1.07a2.25,2.25,0,0,0,2.12-1.05,1.79,1.79,0,0,0,.13-.82Z"/><path class="cls-1" d="M123.74,136.16h2.19v1.07a2.38,2.38,0,0,1,.7-.71,3.78,3.78,0,0,1,2.08-.64,3,3,0,0,1,2.38,1.09,4.78,4.78,0,0,1,.56,2.92v5.32h-2.16v-4.62a6.7,6.7,0,0,0-.07-1.38,1.48,1.48,0,0,0-1.48-1.21,1.91,1.91,0,0,0-1.67,1,5.24,5.24,0,0,0-.34,2.26v3.93h-2.19Z"/><path class="cls-1" d="M143,132.43v12.78h-2.15v-.87a3.17,3.17,0,0,1-2.52,1.14c-2.16,0-4-1.61-4-4.6,0-2.7,1.52-5,4.11-5a3.12,3.12,0,0,1,2.43,1v-4.47Zm-2.66,6.3a1.86,1.86,0,0,0-1.59-.84c-1.47,0-2.18,1.32-2.18,2.76,0,.16,0,2.87,2.14,2.87,1.12,0,2.14-.83,2.12-2.79A4.07,4.07,0,0,0,140.35,138.73Z"/><path class="cls-1" d="M166.25,141.64a6.66,6.66,0,0,1-1.1,1.92,5.66,5.66,0,0,1-4.42,2c-3.38,0-6-2.48-6-6.75s2.8-6.68,6.06-6.68a5.11,5.11,0,0,1,5.21,4l-2.38.63a3.25,3.25,0,0,0-.48-1.26,2.68,2.68,0,0,0-2.29-1.13c-2.09,0-3.53,1.72-3.53,4.46,0,2.91,1.54,4.52,3.54,4.52a3,3,0,0,0,2.45-1.25,4.34,4.34,0,0,0,.67-1.32Z"/><path class="cls-1" d="M180,132.43v12.78h-2.41V139.4h-5.48v5.81h-2.39V132.43h2.39v4.83h5.48v-4.83Z"/><path class="cls-1" d="M187.23,132.43v12.78h-2.35V132.43Z"/><path class="cls-1" d="M194.6,143h5.06v2.18h-7.47v-12.8h2.41Z"/><path class="cls-1" d="M203.76,132.43h4.58a6.14,6.14,0,0,1,3.79,1,6.62,6.62,0,0,1,2.46,5.5c0,2.2-.75,4.42-2.63,5.51a7.88,7.88,0,0,1-4.11.78h-4.09Zm2.39,2.17v8.45h1a8.52,8.52,0,0,0,3-.29c.92-.36,1.9-1.16,1.9-3.82,0-1.19-.18-3.15-2-4a5.9,5.9,0,0,0-2.68-.34Z"/><path class="cls-1" d="M218.65,132.43h4.07c1.7,0,2.84,0,4,.92a3.91,3.91,0,0,1,1.41,3.15,3.5,3.5,0,0,1-2.52,3.51l2.84,5.2h-2.73l-2.53-4.75H221v4.75h-2.37Zm2.37,2.06v4h.83c.82,0,1.13,0,1.58,0a2,2,0,0,0,2.24-2,1.84,1.84,0,0,0-1-1.72,5.93,5.93,0,0,0-2.53-.27Z"/><path class="cls-1" d="M235.08,134.56v3h6.15v2.06h-6.15v3.42h7.18v2.16h-9.54V132.43h9.09v2.13Z"/><path class="cls-1" d="M254,132.43h2.35v12.78h-2.08l-5.6-9,.15,9h-2.34V132.43h2.16l5.65,9Z"/><path class="cls-1" d="M264,142.73v2.48h-2.39v-2.48Z"/><path class="cls-1" d="M257.51,6.25a14.62,14.62,0,0,0-11.38-5.18c-9.6,0-18.89,8.53-20.73,19a18,18,0,0,0,3.47,14.72A14.56,14.56,0,0,0,240.23,40c9.61,0,18.92-8.54,20.76-19C262,15.4,260.69,10,257.51,6.25Zm-1.68,13.82c-1.43,8.1-8.4,14.68-15.6,14.68a9.29,9.29,0,0,1-7.35-3.32A12.66,12.66,0,0,1,230.55,21C232,12.88,239,6.3,246.13,6.3a9.33,9.33,0,0,1,7.37,3.32A12.72,12.72,0,0,1,255.83,20.07Z"/><path class="cls-1" d="M56.4,2C51.15,2,46.24,6.47,45.26,12.14l-2.41,13.8c-.83,4.73-5,8.74-9.2,8.74a5.18,5.18,0,0,1-4.08-1.83,7.4,7.4,0,0,1-1.29-6h0L31.69,7.3a2.61,2.61,0,1,0-5.15-.89l-3.4,19.53c-.85,4.73-5.06,8.74-9.2,8.74a5.13,5.13,0,0,1-4.07-1.83,7.32,7.32,0,0,1-1.31-6L11,13A9.79,9.79,0,0,0,9,5,8.24,8.24,0,0,0,2.61,2a2.62,2.62,0,0,0,0,5.23A3,3,0,0,1,5,8.34a4.7,4.7,0,0,1,.8,3.81L3.42,25.94A12.45,12.45,0,0,0,5.87,36.21a10.32,10.32,0,0,0,8.07,3.7,14.21,14.21,0,0,0,10.61-5.29,9.74,9.74,0,0,0,9.1,5.29c6.77,0,13.06-5.75,14.36-13.08L50.41,13c.55-3.13,3.29-5.78,6-5.78A2.62,2.62,0,1,0,56.4,2Z"/><path class="cls-1" d="M106.76,32.22a6.74,6.74,0,0,1-2.62,1c-3.3-.32-3.58-2.59-3.59-2.62a15.76,15.76,0,0,1,0-2.62l2.27-13c.94-5.33-.79-8.77-2.43-10.72A13.07,13.07,0,0,0,90.14,0a2.62,2.62,0,1,0,0,5.23,7.9,7.9,0,0,1,6.22,2.45c1.3,1.56,1.75,3.79,1.29,6.45l-.12.68a13.7,13.7,0,0,0-9.14-3.74h-.54c-8,0-15.49,5.89-17.06,13.41a12.43,12.43,0,0,0,2.27,10.42,13.46,13.46,0,0,0,10.22,4.92h.57a17.91,17.91,0,0,0,12.67-5.49A9.13,9.13,0,0,0,104,38.5h.34a11.7,11.7,0,0,0,5.39-2,2.61,2.61,0,1,0-3-4.31ZM94.22,29A12.89,12.89,0,0,1,83.85,34.6l-.39,0a8.12,8.12,0,0,1-6.29-2.93,7.35,7.35,0,0,1-1.27-6.1c1.08-5.11,6.45-9.26,11.95-9.26h.36a7.91,7.91,0,0,1,7,4c.06.12,1.45,3.12-.52,7.94C94.65,28.36,94.49,28.59,94.22,29Z"/><path class="cls-1" d="M195.27,1.05c-9.7,1-18.37,10.21-19.35,20.64a17.26,17.26,0,0,0,4.58,14A14.59,14.59,0,0,0,191,39.88c.54,0,1.09,0,1.65-.09a20.69,20.69,0,0,0,13-6.8,2.61,2.61,0,0,0-.15-3.69,2.58,2.58,0,0,0-3.69.14,15.57,15.57,0,0,1-9.72,5.16,9.68,9.68,0,0,1-7.91-2.66,12,12,0,0,1-3.06-9.76c.75-8.06,7.33-15.22,14.65-15.92a9.46,9.46,0,0,1,10,5.79,2.61,2.61,0,0,0,4.8-2.07A14.74,14.74,0,0,0,195.27,1.05Z"/><path class="cls-1" d="M145.32,1.05C135.63,2,127,11.26,126,21.69a17.2,17.2,0,0,0,4.61,14A14.58,14.58,0,0,0,141,39.88c.53,0,1.09,0,1.65-.09a20.66,20.66,0,0,0,13-6.8,2.6,2.6,0,1,0-3.81-3.55,15.7,15.7,0,0,1-9.73,5.16,9.66,9.66,0,0,1-7.9-2.66,12.05,12.05,0,0,1-3.09-9.76c.77-8.06,7.33-15.22,14.66-15.92a9.48,9.48,0,0,1,10,5.79,2.62,2.62,0,0,0,3.44,1.36A2.59,2.59,0,0,0,160.65,10,14.7,14.7,0,0,0,145.32,1.05Z"/><path class="cls-1" d="M7.78,63.73a20.6,20.6,0,0,1-2.5.15c-.22,0-.3,0-.33-.12s-.07-.38-.13-.84c.25,0,.36,0,.59,0a20.13,20.13,0,0,0,2.37-.16v-.12a13.77,13.77,0,0,0-.18-2.93c.44,0,.82.09,1.09.13S9,60,9,60.07s0,.09-.09.32a7.12,7.12,0,0,0-.21,2.25,24.13,24.13,0,0,0,2.48-.58l.1,0a.13.13,0,0,1,.14.11,3.7,3.7,0,0,1,.11.69.18.18,0,0,1-.16.19,20.07,20.07,0,0,1-2.67.57v2.81a11.39,11.39,0,0,1,4.29-1,2.71,2.71,0,0,1,2.93,2.9,2.94,2.94,0,0,1-3.29,3.12,4.84,4.84,0,0,1-1.45-.2c-.12,0-.17-.13-.2-.31a3.78,3.78,0,0,0-.25-.82,4.32,4.32,0,0,0,1.84.39,2.08,2.08,0,0,0,2.26-2.22,1.79,1.79,0,0,0-2-1.94A10.42,10.42,0,0,0,8.7,67.4v1.13c0,.54,0,.91,0,1.1v.6c0,.91-.44,1.44-1.19,1.44a3.35,3.35,0,0,1-2.15-1,1.56,1.56,0,0,1-.51-1.18c0-.88.82-1.63,2.89-2.69Zm0,4.14c-1.43.78-1.93,1.21-1.93,1.68s.75,1.07,1.49,1.07a.39.39,0,0,0,.38-.26c.06-.17.06-.17.06-1V67.87Zm8.29-5.2c.66.41,1.19.9,1.19,1.07a1.64,1.64,0,0,1-.67.75c-.06,0-.09,0-.31-.24a6.12,6.12,0,0,0-2.53-1.54c-.24-.08-.3-.11-.3-.16a1.58,1.58,0,0,1,.32-.54c.1-.16.15-.19.27-.19A7,7,0,0,1,16.05,62.67Z"/><path class="cls-1" d="M30.05,66c-.08.07-.11.09-.18.09s-.46-.35-.89-1.16a18.7,18.7,0,0,0,3.16-1.23c-.95-2.14-1.12-2.47-1.57-3a4,4,0,0,1,1.26-.37c.14,0,.19.07.21.29a3.7,3.7,0,0,0,.5,1.42c.25.56.39.85.55,1.23,3-1.35,4.47-1.77,5.92-1.77a2.79,2.79,0,0,1,3,2.88c0,1.76-1.35,3-3.38,3a5.84,5.84,0,0,1-1.6-.2c-.08,0-.11-.09-.14-.26a2.36,2.36,0,0,0-.35-.91,6,6,0,0,0,2,.36c1.43,0,2.36-.81,2.36-2a1.86,1.86,0,0,0-2-1.86,12,12,0,0,0-4.22,1.16c-.07,0-.46.21-1.16.5.68,1.6,1.49,3.72,2.43,6.52a8.33,8.33,0,0,1,.36,1.12c0,.09-.08.15-.33.24a2.35,2.35,0,0,1-.65.16c-.1,0-.1,0-.22-.42a50.61,50.61,0,0,0-2.54-7.18A12,12,0,0,0,30.05,66ZM36.31,60c.47.43.73.79.73,1a1.56,1.56,0,0,1-.69.68c-.07,0-.07,0-.37-.41a5.93,5.93,0,0,0-1.16-1.13c-.08,0-.12-.1-.12-.14a1.48,1.48,0,0,1,.68-.63A3.72,3.72,0,0,1,36.31,60Z"/><path class="cls-1" d="M57.22,69.08c.82.8,2,1.11,4,1.11a17.85,17.85,0,0,0,4-.48.57.57,0,0,1,.19,0c.06,0,.1,0,.12.11a5.36,5.36,0,0,1,.06.83c0,.19,0,.27-.15.29a23,23,0,0,1-4.23.42,7.15,7.15,0,0,1-4.16-.88A3.44,3.44,0,0,1,56,69.27a2.76,2.76,0,0,1-.31-.77c0-.12.31-.38.83-.63A2.62,2.62,0,0,0,57.22,69.08Zm6.59-8.2c.1,0,.13,0,.15.13a3.82,3.82,0,0,1,.06.66c0,.28,0,.34-.14.37a16,16,0,0,1-2.32.13,20.48,20.48,0,0,1-4.1-.42c-.41-.1-.43-.11-.43-.38a4.63,4.63,0,0,1,.08-.85,15.58,15.58,0,0,0,4.15.52,16.79,16.79,0,0,0,2.48-.16Z"/><path class="cls-1" d="M84.87,67.4c-.91,2-1.93,3-3.09,3-1.41,0-2.4-1.48-2.4-3.61a6.05,6.05,0,0,1,2.59-5,6.83,6.83,0,0,1,4-1.16c3.43,0,5.69,2.07,5.69,5.21a5.63,5.63,0,0,1-2.89,5,6.6,6.6,0,0,1-2,.9c-.09,0-.15,0-.26-.18a2.18,2.18,0,0,0-.7-.6,8.06,8.06,0,0,0,2.55-1.09,4.79,4.79,0,0,0,2.18-4A4.05,4.05,0,0,0,88.14,62a4.53,4.53,0,0,0-1.78-.41A19.87,19.87,0,0,1,84.87,67.4Zm-1.73-5.18a5.1,5.1,0,0,0-2.74,4.7c0,1.41.58,2.4,1.41,2.4.68,0,1.38-.8,2.06-2.36a18.72,18.72,0,0,0,1.41-5.32A5.73,5.73,0,0,0,83.14,62.22Z"/><path class="cls-1" d="M110.27,63.17a7.21,7.21,0,0,0-.34,1,12.87,12.87,0,0,1-4.47,6.64,3.74,3.74,0,0,0-.87-.75,11.25,11.25,0,0,0,4.51-6.39h-2.5a8.61,8.61,0,0,0-1.42.09v-1.1a8.67,8.67,0,0,0,1.46.08h1.62a10.18,10.18,0,0,0,1.42-.06Zm6.7-.62a24.18,24.18,0,0,1-3.22,3,12,12,0,0,0,4.72,4.25,4.39,4.39,0,0,0-.81,1,13.19,13.19,0,0,1-5.73-7.19c.06,1.21.11,2.4.11,2.95V71c0,.92-.31,1.21-1.37,1.21a17,17,0,0,1-1.93-.11,3.51,3.51,0,0,0-.23-1,10.31,10.31,0,0,0,2,.21c.41,0,.51-.08.51-.43V60.57a8.33,8.33,0,0,0-.12-1.53h1.19a13.19,13.19,0,0,0-.1,1.51v1.06a10.39,10.39,0,0,0,1.26,3.22,13.24,13.24,0,0,0,3.18-3.47l1,.74-.23.21Z"/><path class="cls-1" d="M133.47,61.18a9.22,9.22,0,0,0-1.48.1v-1a9.62,9.62,0,0,0,1.48.1h2.14A9.35,9.35,0,0,0,134.46,59l.85-.31a12.27,12.27,0,0,1,1.29,1.78h2.54a9.49,9.49,0,0,0,1.38-1.76l.9.34a10.68,10.68,0,0,1-1.27,1.42h2.32a9.72,9.72,0,0,0,1.48-.1v1a8.65,8.65,0,0,0-1.48-.1h-4.16v1H142a6.4,6.4,0,0,0,1.32-.08v.9A9.15,9.15,0,0,0,142,63h-3.66v1.07h4.77a10,10,0,0,0,1.5-.08v1a8.91,8.91,0,0,0-1.5-.1h-7.47c-.15.5-.19.69-.29,1h6.52c.44,0,.9,0,1.37-.06a9.39,9.39,0,0,0-.06,1.19v4.3a8.88,8.88,0,0,0,.09,1.35h-1v-.72h-6.7v.72h-1a7.66,7.66,0,0,0,.1-1.33V69a12.46,12.46,0,0,1,.11-1.67,11.84,11.84,0,0,1-2.89,4.14,3.16,3.16,0,0,0-.74-.8,10.26,10.26,0,0,0,3.61-5.83h-1.81a7.87,7.87,0,0,0-1.48.1V64a9.67,9.67,0,0,0,1.48.08h4.55V63H134a9.07,9.07,0,0,0-1.32.06v-.9a6.4,6.4,0,0,0,1.32.08h3.38v-1Zm2,5.39v1h6.7v-1Zm0,1.73v1h6.7v-1Zm0,1.74v1h6.7V70Z"/></g></g></svg>